<svg width="12" height="12" viewBox="0 0 12 12" fill="none" xmlns="http://www.w3.org/2000/svg">
<path d="M7.96515 6.45055C8.05596 6.20788 8.10203 5.95076 8.10112 5.69166C8.10112 5.11637 7.87258 4.56463 7.46578 4.15784C7.05899 3.75104 6.50726 3.52251 5.93196 3.52251C5.67605 3.52281 5.42226 3.56885 5.18256 3.65847L5.69164 4.18337C5.76903 4.17099 5.84726 4.16465 5.92563 4.1644C6.33241 4.16355 6.723 4.32368 7.01211 4.60983C7.30122 4.89598 7.46537 5.2849 7.46871 5.69166C7.46845 5.77003 7.4621 5.84827 7.44974 5.92565L7.96515 6.45055Z" fill="#C7D2D6"/>
<path d="M10.8426 5.54305C9.77702 3.5731 7.90826 2.38101 5.84029 2.38101C5.27724 2.38233 4.71797 2.47305 4.18338 2.64979L4.69247 3.16204C5.06744 3.06513 5.453 3.01521 5.84029 3.01342C7.62051 3.01342 9.23948 4.0063 10.2039 5.67902C9.85012 6.2996 9.38112 6.84694 8.82209 7.29166L9.2711 7.74067C9.91807 7.21872 10.4554 6.57393 10.8521 5.84344L10.9343 5.69167L10.8426 5.54305Z" fill="#C7D2D6"/>
<path d="M1.53991 1.82765L2.95018 3.23792C2.05878 3.81186 1.33024 4.60574 0.834776 5.54304L0.752563 5.69166L0.834776 5.84344C1.90038 7.81339 3.76915 9.00547 5.83712 9.00547C6.64428 9.00531 7.44095 8.82263 8.16754 8.47109L9.74856 10.0521L10.3019 9.5778L2.08062 1.35651L1.53991 1.82765ZM4.6229 4.91064L6.72565 7.01339C6.48806 7.16045 6.21455 7.23922 5.93514 7.24106C5.73212 7.24106 5.5311 7.20092 5.34364 7.12294C5.15619 7.04496 4.98601 6.93068 4.84289 6.78668C4.69977 6.64268 4.58654 6.4718 4.50971 6.28387C4.43289 6.09594 4.39398 5.89468 4.39523 5.69166C4.39879 5.41547 4.4775 5.14547 4.6229 4.91064ZM4.1644 4.45214C3.86857 4.86934 3.72991 5.37776 3.77298 5.88738C3.81604 6.39701 4.03805 6.87495 4.39969 7.2366C4.76133 7.59824 5.23928 7.82024 5.7489 7.86331C6.25852 7.90637 6.76695 7.76771 7.18415 7.47189L7.69007 7.97781C7.10439 8.22816 6.47406 8.35724 5.83712 8.35725C4.05689 8.35725 2.43793 7.36438 1.47351 5.69166C1.93634 4.87213 2.6029 4.18596 3.40867 3.69958L4.1644 4.45214Z" fill="#C7D2D6"/>
</svg>
