<svg width="18" height="18" viewBox="0 0 18 18" fill="none" xmlns="http://www.w3.org/2000/svg">
<path d="M17.075 8.58979C17.075 3.84508 13.2523 -0.00106812 8.5375 -0.00106812C3.82053 -9.27597e-07 -0.00213623 3.84508 -0.00213623 8.59086C-0.00213623 12.8778 3.12045 16.4315 7.20138 17.0761V11.0731H5.03499V8.59086H7.20351V6.6966C7.20351 4.54408 8.4788 3.35524 10.4286 3.35524C11.3634 3.35524 12.3399 3.52279 12.3399 3.52279V5.63582H11.2631C10.2034 5.63582 9.87255 6.29854 9.87255 6.97834V8.58979H12.2396L11.8618 11.0721H9.87148V17.075C13.9524 16.4304 17.075 12.8767 17.075 8.58979Z" fill="#059BE5"/>
</svg>
